HIERARCHY
ROOT reference
{
  OFFSET 0 0 0
  CHANNELS 6 Xposition Yposition Zposition Zrotation Xrotation Yrotation
  JOINT Hips
  {
    OFFSET 4.51486 89.0038 97.2318
    CHANNELS 6 Xposition Yposition Zposition Zrotation Xrotation Yrotation
    JOINT Spine
    {
      OFFSET 0 7.57377 0
      CHANNELS 6 Xposition Yposition Zposition Zrotation Xrotation Yrotation
      JOINT Spine1
      {
        OFFSET 0 21.6353 0
        CHANNELS 6 Xposition Yposition Zposition Zrotation Xrotation Yrotation
        JOINT Neck
        {
          OFFSET 0 21.5464 1.95876
          CHANNELS 6 Xposition Yposition Zposition Zrotation Xrotation Yrotation
          JOINT Head
          {
            OFFSET 0 12.9308 -1.84726
            CHANNELS 6 Xposition Yposition Zposition Zrotation Xrotation Yrotation
            End Site
            {
              OFFSET 0 23.0907 0
            }
          }
        }
        JOINT LeftShoulder
        {
          OFFSET 3.70822 19.5981 -0.368577
          CHANNELS 6 Xposition Yposition Zposition Zrotation Xrotation Yrotation
          JOINT LeftArm
          {
            OFFSET 11.1726 0 0
            CHANNELS 6 Xposition Yposition Zposition Zrotation Xrotation Yrotation
            JOINT LeftForeArm
            {
              OFFSET 28.6421 0 0
              CHANNELS 6 Xposition Yposition Zposition Zrotation Xrotation Yrotation
              JOINT LeftHand
              {
                OFFSET 23.9346 0 0
                CHANNELS 6 Xposition Yposition Zposition Zrotation Xrotation Yrotation
                End Site
                {
                  OFFSET 13.8545 0 0
                }
              }
            }
          }
        }
        JOINT RightShoulder
        {
          OFFSET -3.63664 19.5981 -0.368577
          CHANNELS 6 Xposition Yposition Zposition Zrotation Xrotation Yrotation
          JOINT RightArm
          {
            OFFSET -11.1726 0 0
            CHANNELS 6 Xposition Yposition Zposition Zrotation Xrotation Yrotation
            JOINT RightForeArm
            {
              OFFSET -28.6421 0 0
              CHANNELS 6 Xposition Yposition Zposition Zrotation Xrotation Yrotation
              JOINT RightHand
              {
                OFFSET -23.9346 0 0
                CHANNELS 6 Xposition Yposition Zposition Zrotation Xrotation Yrotation
                End Site
                {
                  OFFSET -13.8545 0 0
                }
              }
            }
          }
        }
      }
    }
    JOINT LeftUpLeg
    {
      OFFSET 9.2363 0 0
      CHANNELS 6 Xposition Yposition Zposition Zrotation Xrotation Yrotation
      JOINT LeftLeg
      {
        OFFSET 0 -40.7061 0
        CHANNELS 6 Xposition Yposition Zposition Zrotation Xrotation Yrotation
        JOINT LeftFoot
        {
          OFFSET 0 -40.9975 0
          CHANNELS 6 Xposition Yposition Zposition Zrotation Xrotation Yrotation
          JOINT LeftToeBase
          {
            OFFSET 0 -6.00359 13.8545
            CHANNELS 6 Xposition Yposition Zposition Zrotation Xrotation Yrotation
            End Site
            {
              OFFSET 0 0 3.69452
            }
          }
        }
      }
    }
    JOINT RightUpLeg
    {
      OFFSET -9.2363 0 0
      CHANNELS 6 Xposition Yposition Zposition Zrotation Xrotation Yrotation
      JOINT RightLeg
      {
        OFFSET 0 -40.7061 0
        CHANNELS 6 Xposition Yposition Zposition Zrotation Xrotation Yrotation
        JOINT RightFoot
        {
          OFFSET 0 -40.9975 0
          CHANNELS 6 Xposition Yposition Zposition Zrotation Xrotation Yrotation
          JOINT RightToeBase
          {
            OFFSET 0 -6.00359 13.8545
            CHANNELS 6 Xposition Yposition Zposition Zrotation Xrotation Yrotation
            End Site
            {
              OFFSET 0 0 3.69452
            }
          }
        }
      }
    }
  }
}
MOTION
Frames:	6
Frame Time:	0.004
0 0 0 0 0 -0 -20.6459 80.4744 -193.46 1.28988 2.15783 8.60938 0 7.57377 0 -3.01927 -7.2389 -0.218957 -3.55271e-015 21.6353 0 1.28497 -5.05315 0.030149 0 21.5464 1.95876 -4.51854 13.4816 5.00978 0 12.9308 -1.84726 4.04467 20.0183 5.19555 3.70822 19.5981 -0.368577 18.0861 -4.76312 -11.3158 11.1726 0 0 -20.3504 -0.190542 3.2575 28.6421 0 0 2.98862 -4.03784 0.203416 23.9346 0 0 -2.67769 -4.05851 0.660493 -3.63664 19.5981 -0.368577 -20.8476 -3.01965 -3.2704 -11.1726 0 2.84217e-014 20.3848 -3.35715 6.42066 -28.6421 -2.84217e-014 0 0.63896 3.44912 -5.04376 -23.9346 2.84217e-014 2.84217e-014 -12.0196 3.62153 -1.3733 9.2363 -1.42109e-014 -2.84217e-014 -3.36077 -1.77721 -1.84833 -3.55271e-015 -40.7061 0 1.46172 6.38863 -4.32199 0 -40.9975 2.84217e-014 6.61741 -18.0981 -7.59939 0 -6.00359 13.8545 -1.98785e-016 1.59028e-015 7.95139e-016 -9.2363 -2.84217e-014 0 -0.796099 1.52884 7.18533 -7.10543e-015 -40.7061 2.84217e-014 3.58775 5.11536 2.29649 7.10543e-015 -40.9975 0 -23.6544 -14.9343 -18.7922 0 -6.00359 13.8545 -3.57812e-015 1.59028e-015 3.97569e-016 
0 0 0 0 0 -0 -20.6427 80.4744 -193.452 1.28838 2.15695 8.6082 7.10543e-015 7.57377 0 -3.01778 -7.24635 -0.218452 -3.55271e-015 21.6353 0 1.28974 -5.05401 0.0301199 0 21.5464 1.95876 -4.51788 13.4925 5.01019 -7.10543e-015 12.9308 -1.84726 4.04318 20.025 5.1953 3.70822 19.5981 -0.368577 18.0795 -4.76309 -11.3201 11.1726 0 -2.84217e-014 -20.3493 -0.17115 3.25784 28.6421 0 2.84217e-014 2.98997 -4.04951 0.206444 23.9346 0 2.84217e-014 -2.69025 -4.07008 0.650521 -3.63664 19.5981 -0.368577 -20.8568 -3.02743 -3.26737 -11.1726 -2.84217e-014 0 20.3886 -3.34252 6.41047 -28.6421 0 0 0.642399 3.45029 -5.05176 -23.9346 0 2.84217e-014 -12.0443 3.62399 -1.38088 9.2363 -1.42109e-014 0 -3.36043 -1.76331 -1.84055 0 -40.7061 0 1.46443 6.378 -4.37041 0 -40.9975 2.84217e-014 6.63421 -18.0986 -7.55482 -7.10543e-015 -6.00359 13.8545 -1.78906e-015 -1.59028e-015 -0 -9.2363 -1.42109e-014 0 -0.792899 1.53669 7.16279 7.10543e-015 -40.7061 2.84217e-014 3.58014 5.11138 2.31419 0 -40.9975 0 -23.666 -14.9292 -18.7954 3.55271e-015 -6.00359 13.8545 -1.54058e-015 4.77083e-015 1.19271e-015 
0 0 0 0 0 -0 -20.6375 80.4744 -193.432 1.27825 2.14849 8.6075 0 7.57377 -2.84217e-014 -3.00616 -7.26012 -0.217429 0 21.6353 0 1.29498 -5.05012 0.0300537 0 21.5464 1.95876 -4.52096 13.5138 5.01165 0 12.9308 -1.84726 4.05649 20.0358 5.19511 3.70822 19.5981 -0.368577 18.0807 -4.76828 -11.3199 11.1726 0 0 -20.3594 -0.145515 3.26174 28.6421 2.84217e-014 2.84217e-014 2.99261 -4.07026 0.205708 23.9346 0 0 -2.65366 -4.0904 0.639495 -3.63664 19.5981 -0.368577 -20.8631 -3.03971 -3.26265 -11.1726 0 0 20.3906 -3.32506 6.39807 -28.6421 2.84217e-014 0 0.658298 3.47076 -5.06053 -23.9346 0 -2.84217e-014 -12.0899 3.64943 -1.41572 9.2363 0 0 -3.34296 -1.72726 -1.85346 0 -40.7061 0 1.45182 6.34811 -4.36925 1.77636e-015 -40.9975 -2.84217e-014 6.60936 -18.0979 -7.55107 -7.10543e-015 -6.00359 13.8545 2.18663e-015 1.59028e-015 1.59028e-015 -9.2363 1.42109e-014 0 -0.772008 1.56672 7.14526 7.10543e-015 -40.7061 0 3.55869 5.09269 2.28676 0 -40.9975 2.84217e-014 -23.5797 -14.948 -18.7466 0 -6.00359 13.8545 5.11871e-015 0 -3.97569e-016 
0 0 0 0 0 -0 -20.6316 80.4744 -193.414 1.2711 2.14659 8.60743 0 7.57377 -2.84217e-014 -3.00197 -7.279 -0.216344 -3.55271e-015 21.6353 0 1.30434 -5.04489 0.0299825 3.55271e-015 21.5464 1.95876 -4.50499 13.4874 5.02345 -7.10543e-015 12.9308 -1.84726 4.05858 20.1223 5.20477 3.70822 19.5981 -0.368577 18.0818 -4.77109 -11.3235 11.1726 0 0 -20.368 -0.143401 3.26417 28.6421 0 0 2.99529 -4.07955 0.199719 23.9346 -2.84217e-014 0 -2.63008 -4.09954 0.645422 -3.63664 19.5981 -0.368577 -20.8687 -3.04303 -3.27136 -11.1726 2.84217e-014 0 20.3926 -3.33416 6.39945 -28.6421 2.84217e-014 0 0.681642 3.49876 -5.07307 -23.9346 2.84217e-014 -2.84217e-014 -12.0894 3.68095 -1.43874 9.2363 0 -2.84217e-014 -3.32694 -1.69948 -1.87664 -1.77636e-015 -40.7061 0 1.42749 6.31438 -4.27927 -1.77636e-015 -40.9975 0 6.61706 -18.1154 -7.62482 0 -6.00359 13.8545 -5.96354e-016 3.18055e-015 7.95139e-016 -9.2363 0 0 -0.75615 1.58486 7.12858 0 -40.7061 0 3.53706 5.0843 2.27969 0 -40.9975 0 -23.5867 -14.9583 -18.7303 0 -6.00359 13.8545 -3.18055e-015 -1.59028e-015 7.95139e-016 
0 0 0 0 0 -0 -20.6242 80.4744 -193.397 1.27025 2.14375 8.60733 0 7.57377 0 -2.99344 -7.29039 -0.215251 0 21.6353 2.84217e-014 1.30859 -5.07152 0.02994 0 21.5464 1.95876 -4.51656 13.5332 5.04806 -7.10543e-015 12.9308 -1.84726 4.07158 20.1508 5.22722 3.70822 19.5981 -0.368577 18.0435 -4.73431 -11.3401 11.1726 2.84217e-014 2.84217e-014 -20.3365 -0.146229 3.2795 28.6421 0 0 2.99768 -4.08829 0.198297 23.9346 2.84217e-014 0 -2.63758 -4.10833 0.644561 -3.63664 19.5981 -0.368577 -20.8658 -3.0213 -3.21312 -11.1726 2.84217e-014 0 20.3945 -3.36658 6.36581 -28.6421 0 0 0.684925 3.51858 -5.08925 -23.9346 2.84217e-014 0 -12.1082 3.70167 -1.44261 9.2363 1.42109e-014 0 -3.32322 -1.66513 -1.88916 0 -40.7061 -2.84217e-014 1.41587 6.27907 -4.29674 1.77636e-015 -40.9975 0 6.64073 -18.1145 -7.59275 0 -6.00359 13.8545 1.98785e-015 0 7.95139e-016 -9.2363 0 0 -0.750818 1.60857 7.11535 -7.10543e-015 -40.7061 0 3.51987 5.06855 2.29641 7.10543e-015 -40.9975 0 -23.6375 -14.9492 -18.7489 -3.55271e-015 -6.00359 13.8545 2.28602e-015 -4.77083e-015 -7.95139e-016 
0 0 0 0 0 -0 -20.617 80.4744 -193.378 1.2672 2.13338 8.60721 0 7.57377 0 -2.97896 -7.29533 -0.21421 0 21.6353 -2.84217e-014 1.30359 -5.09776 0.0299565 0 21.5464 1.95876 -4.52073 13.6011 5.0611 3.55271e-015 12.9308 -1.84726 4.07378 20.1441 5.23828 3.70822 19.5981 -0.368577 18.0247 -4.71502 -11.3527 11.1726 2.84217e-014 -2.84217e-014 -20.3259 -0.13811 3.30077 28.6421 0 -2.84217e-014 2.99856 -4.09567 0.198429 23.9346 0 2.84217e-014 -2.63424 -4.1156 0.63938 -3.63664 19.5981 -0.368577 -20.8586 -2.9954 -3.15698 -11.1726 0 -2.84217e-014 20.3931 -3.3704 6.33619 -28.6421 0 2.84217e-014 0.679098 3.52088 -5.09956 -23.9346 2.84217e-014 0 -12.1381 3.70443 -1.44522 9.2363 0 0 -3.31259 -1.61683 -1.90698 3.55271e-015 -40.7061 0 1.39998 6.23225 -4.31635 -1.77636e-015 -40.9975 0 6.64648 -18.1043 -7.55964 0 -6.00359 13.8545 -7.95139e-016 -1.59028e-015 -0 -9.2363 0 0 -0.740608 1.63833 7.06775 3.55271e-015 -40.7061 0 3.49814 5.05705 2.32601 0 -40.9975 0 -23.5773 -14.9649 -18.7324 -3.55271e-015 -6.00359 13.8545 3.37934e-015 0 -3.97569e-016 
